<?xml version="1.0" standalone="no"?>
<!DOCTYPE svg PUBLIC "-//W3C//DTD SVG 20010904//EN"
 "http://www.w3.org/TR/2001/REC-SVG-20010904/DTD/svg10.dtd">
<svg version="1.0" xmlns="http://www.w3.org/2000/svg"
 width="275.000000pt" height="275.000000pt" viewBox="0 0 275.000000 275.000000"
 preserveAspectRatio="xMidYMid meet">
<metadata>
Created by potrace 1.16, written by Peter Selinger 2001-2019
</metadata>
<g transform="translate(0.000000,275.000000) scale(0.100000,-0.100000)"
fill="#000000" stroke="none">
<path d="M1265 2107 c-257 -138 -278 -151 -292 -184 -16 -40 -18 -345 -2 -391
8 -25 29 -42 97 -80 167 -94 280 -152 297 -152 16 0 226 109 340 177 l50 29 3
213 c2 156 -1 217 -10 228 -6 8 -50 35 -97 59 -48 24 -126 67 -176 94 -49 27
-99 50 -110 50 -11 -1 -56 -20 -100 -43z m343 -240 c8 -7 12 -48 12 -143 l0
-134 -32 -20 c-18 -11 -37 -18 -43 -17 -6 2 -11 48 -12 106 0 56 -3 105 -6
108 -3 3 -31 -9 -61 -27 l-56 -31 0 -118 c0 -116 0 -118 -25 -129 -20 -9 -30
-9 -45 0 -18 12 -20 24 -20 130 l0 117 -105 58 c-112 62 -125 80 -79 110 26
17 28 16 128 -36 l101 -54 42 21 c23 12 44 26 48 31 3 6 -33 31 -80 57 -47 26
-85 51 -85 56 0 4 17 16 38 27 l37 19 115 -60 c63 -33 121 -65 128 -71z m-448
-112 l40 -25 0 -85 c0 -46 -5 -87 -10 -90 -6 -4 -26 3 -45 15 l-35 22 0 94 c0
52 2 94 5 94 3 0 23 -11 45 -25z"/>
<path d="M849 993 c-34 -4 -40 -10 -89 -95 l-53 -90 -18 24 c-10 12 -35 53
-56 90 -38 67 -38 68 -81 68 l-42 0 2 -182 3 -183 35 0 35 0 5 109 c6 122 8
123 60 27 37 -68 66 -68 107 1 18 29 35 61 39 71 16 42 24 9 24 -98 l0 -115
35 0 35 0 0 190 c0 105 -1 189 -2 188 -2 -1 -19 -3 -39 -5z"/>
<path d="M1345 987 c-88 -35 -118 -79 -119 -176 -1 -114 61 -179 181 -189 l63
-5 0 37 c0 35 -1 36 -40 36 -56 0 -99 24 -116 65 -19 47 -18 84 6 123 23 37
54 52 111 52 38 0 39 1 39 35 l0 35 -47 -1 c-27 0 -61 -6 -78 -12z"/>
<path d="M940 961 c0 -28 3 -30 43 -33 l42 -3 3 -153 3 -153 37 3 37 3 5 150
5 150 38 3 c34 3 37 6 37 33 l0 29 -125 0 -125 0 0 -29z"/>
<path d="M1542 808 l3 -183 30 0 30 0 5 109 c6 124 2 124 83 1 77 -116 76
-115 107 -115 l29 0 3 185 3 185 -37 0 -38 0 0 -105 c0 -102 -7 -125 -26 -86
-5 10 -34 57 -64 105 -53 83 -56 86 -93 86 l-37 0 2 -182z"/>
<path d="M1980 898 c-29 -84 -90 -269 -90 -275 0 -2 16 -3 36 -3 30 0 37 4 45
30 11 29 12 30 79 30 68 0 68 0 75 -30 6 -27 10 -30 46 -30 21 0 39 2 39 5 0
9 -62 200 -75 230 -7 17 -19 53 -27 80 -15 48 -17 50 -55 53 l-40 3 -33 -93z"/>
</g>
</svg>
