<?xml version="1.0" standalone="no"?>
<!DOCTYPE svg PUBLIC "-//W3C//DTD SVG 20010904//EN"
 "http://www.w3.org/TR/2001/REC-SVG-20010904/DTD/svg10.dtd">
<svg version="1.0" xmlns="http://www.w3.org/2000/svg"
 width="273.000000pt" height="271.000000pt" viewBox="0 0 273.000000 271.000000"
 preserveAspectRatio="xMidYMid meet">
<metadata>
Created by potrace 1.16, written by Peter Selinger 2001-2019
</metadata>
<g transform="translate(0.000000,271.000000) scale(0.100000,-0.100000)"
fill="#000000" stroke="none">
<path d="M1325 2104 c-154 -81 -314 -172 -332 -191 -22 -21 -23 -28 -23 -221
0 -176 2 -202 18 -220 26 -32 350 -205 382 -205 32 0 356 173 383 205 15 18
17 44 17 218 0 174 -2 200 -17 219 -27 31 -356 212 -385 211 -7 -1 -26 -8 -43
-16z m172 -210 l123 -67 0 -134 0 -133 -32 -20 c-18 -11 -36 -20 -40 -20 -5 0
-8 50 -8 110 0 61 -3 110 -7 110 -5 0 -33 -15 -63 -33 l-55 -33 -3 -117 c-2
-104 -5 -118 -22 -127 -14 -8 -26 -8 -40 0 -17 9 -20 23 -22 128 l-3 117 -102
58 c-111 63 -126 85 -73 107 27 11 36 8 125 -39 l96 -52 49 27 c27 15 47 30
45 35 -3 4 -40 26 -83 49 -42 23 -81 45 -85 49 -8 8 47 48 67 50 5 1 65 -29
133 -65z"/>
<path d="M1415 965 c-69 -25 -125 -105 -125 -180 0 -110 100 -201 211 -193 43
3 44 4 47 41 l3 37 -50 0 c-69 0 -111 36 -118 100 -8 81 41 130 128 130 l40 0
-3 38 c-3 36 -4 37 -48 39 -25 2 -63 -4 -85 -12z"/>
<path d="M590 785 l0 -185 40 0 39 0 3 111 3 112 40 -71 c34 -61 44 -72 67
-72 23 0 33 10 65 66 l38 65 3 -105 3 -106 39 0 40 0 0 185 0 185 -40 0 c-38
0 -40 -2 -81 -72 -71 -123 -60 -121 -119 -19 l-52 91 -44 0 -44 0 0 -185z"/>
<path d="M1020 930 l0 -40 40 0 40 0 0 -145 0 -145 45 0 45 0 0 145 0 145 40
0 40 0 0 40 0 40 -125 0 -125 0 0 -40z"/>
<path d="M1610 785 l0 -185 40 0 39 0 3 68 3 67 44 -67 43 -68 49 0 c27 0 49
2 49 5 0 2 -20 33 -45 68 -45 65 -54 87 -35 87 6 0 22 11 35 25 19 19 25 35
25 70 0 90 -36 115 -165 115 l-85 0 0 -185z"/>
<path d="M1930 785 l0 -185 110 0 110 0 0 35 0 35 -65 0 -65 0 0 40 0 40 66 0
65 0 -3 38 -3 37 -62 3 c-62 3 -63 3 -63 32 0 29 1 29 63 32 l62 3 3 38 3 37
-110 0 -111 0 0 -185z"/>
</g>
</svg>
