<?xml version="1.0" standalone="no"?>
<!DOCTYPE svg PUBLIC "-//W3C//DTD SVG 20010904//EN"
 "http://www.w3.org/TR/2001/REC-SVG-20010904/DTD/svg10.dtd">
<svg version="1.0" xmlns="http://www.w3.org/2000/svg"
 width="211.000000pt" height="294.000000pt" viewBox="0 0 211.000000 294.000000"
 preserveAspectRatio="xMidYMid meet">
<metadata>
Created by potrace 1.16, written by Peter Selinger 2001-2019
</metadata>
<g transform="translate(0.000000,294.000000) scale(0.100000,-0.100000)"
fill="#000000" stroke="none">
<path d="M697 2811 c-159 -49 -301 -97 -315 -108 -56 -41 -62 -68 -62 -299 l0
-211 -87 -13 c-104 -15 -137 -30 -159 -71 -15 -29 -14 -40 11 -168 14 -75 33
-174 42 -221 9 -47 22 -97 30 -112 20 -40 65 -60 117 -53 l42 7 12 -62 c40
-218 247 -415 591 -564 l115 -49 50 17 c176 61 402 203 517 324 86 90 133 173
151 271 l12 63 40 -5 c48 -7 100 13 116 44 13 23 27 88 74 336 26 132 27 143
12 172 -22 41 -55 56 -158 71 l-88 13 0 211 c0 231 -6 258 -62 299 -43 32
-601 197 -662 196 -34 0 -145 -29 -339 -88z m662 -66 c230 -69 290 -91 309
-111 21 -24 22 -32 22 -229 l0 -205 -42 5 c-24 3 -86 10 -138 16 -180 20 -655
23 -880 5 -113 -9 -213 -19 -222 -22 -17 -5 -18 9 -18 201 0 204 0 206 24 230
13 13 41 28 62 34 22 6 147 44 279 85 132 41 258 74 279 75 23 1 159 -35 325
-84z m61 -550 c226 -17 474 -51 517 -70 20 -9 35 -24 39 -39 3 -14 -12 -122
-35 -243 -51 -272 -45 -265 -191 -243 -434 66 -972 68 -1394 5 -118 -18 -150
-15 -166 15 -10 19 -69 305 -85 412 -13 88 1 96 232 128 342 48 745 61 1083
35z m-356 -750 l17 -55 62 0 62 -1 -23 -19 c-13 -11 -35 -28 -49 -38 l-26 -19
18 -52 c9 -29 15 -55 12 -57 -3 -3 -26 9 -51 27 l-46 33 -46 -33 c-25 -18 -48
-30 -51 -28 -2 3 4 28 13 57 l17 53 -26 19 c-14 10 -36 27 -49 38 l-23 19 62
1 62 0 17 55 c10 30 21 55 24 55 3 0 14 -25 24 -55z"/>
<path d="M323 481 c-53 -33 -65 -124 -22 -170 10 -11 46 -30 79 -42 88 -32
110 -71 69 -123 -42 -53 -149 -17 -149 50 0 18 -6 24 -21 24 -18 0 -20 -4 -14
-32 16 -75 62 -118 125 -118 61 0 110 58 110 129 0 54 -36 95 -103 117 -65 21
-87 40 -87 74 0 39 30 62 76 58 31 -2 43 -9 59 -35 27 -44 50 -44 41 0 -15 72
-99 108 -163 68z"/>
<path d="M640 482 c-56 -31 -83 -94 -83 -196 1 -140 48 -211 139 -211 51 0 92
34 113 91 11 30 11 38 0 45 -21 13 -29 11 -29 -10 0 -11 -12 -33 -26 -50 -50
-60 -129 -32 -153 55 -23 81 -7 179 34 220 44 44 116 24 138 -38 8 -22 26 -23
33 -4 7 17 -17 64 -44 89 -30 27 -81 31 -122 9z"/>
<path d="M1041 453 c-53 -53 -53 -152 -1 -205 35 -35 63 -36 96 -3 30 30 33
31 29 8 -2 -10 -7 -35 -10 -55 -7 -47 -28 -68 -67 -68 -24 0 -32 6 -41 30 -14
37 -37 39 -37 4 0 -28 49 -84 74 -84 33 0 69 26 89 64 17 34 21 58 21 141 0
131 -22 177 -92 191 -26 5 -36 1 -61 -23z m103 -45 c36 -51 9 -138 -42 -138
-35 0 -49 10 -61 43 -13 32 -5 74 17 100 22 24 67 22 86 -5z"/>
<path d="M1302 470 c-39 -16 -56 -73 -57 -190 0 -86 4 -112 20 -145 37 -74
118 -69 151 10 20 48 19 222 -2 273 -21 54 -61 72 -112 52z m65 -48 c22 -14
33 -62 33 -142 0 -112 -17 -150 -67 -150 -41 0 -58 43 -58 150 0 75 4 102 18
123 17 27 49 35 74 19z"/>
<path d="M1542 470 c-39 -16 -56 -73 -57 -190 0 -86 4 -112 20 -145 37 -74
118 -69 151 10 20 48 19 222 -2 273 -21 54 -61 72 -112 52z m65 -48 c22 -14
33 -62 33 -142 0 -112 -17 -150 -67 -150 -41 0 -58 43 -58 150 0 75 4 102 18
123 17 27 49 35 74 19z"/>
</g>
</svg>
